<svg width="27" height="28" viewBox="0 0 27 28" fill="none" xmlns="http://www.w3.org/2000/svg">
<path d="M7.90844 16.1007C9.78844 16.1007 11.2951 17.622 11.2951 19.5154V24.0607C11.2951 25.9407 9.78844 27.474 7.90844 27.474H3.40177C1.53511 27.474 0.0151062 25.9407 0.0151062 24.0607V19.5154C0.0151062 17.622 1.53511 16.1007 3.40177 16.1007H7.90844ZM23.2952 16.1007C25.1619 16.1007 26.6819 17.622 26.6819 19.5154V24.0607C26.6819 25.9407 25.1619 27.474 23.2952 27.474H18.7886C16.9086 27.474 15.4019 25.9407 15.4019 24.0607V19.5154C15.4019 17.622 16.9086 16.1007 18.7886 16.1007H23.2952ZM7.90844 0.80777C9.78844 0.80777 11.2951 2.3411 11.2951 4.22244V8.76777C11.2951 10.6611 9.78844 12.1811 7.90844 12.1811H3.40177C1.53511 12.1811 0.0151062 10.6611 0.0151062 8.76777V4.22244C0.0151062 2.3411 1.53511 0.80777 3.40177 0.80777H7.90844ZM23.2952 0.80777C25.1619 0.80777 26.6819 2.3411 26.6819 4.22244V8.76777C26.6819 10.6611 25.1619 12.1811 23.2952 12.1811H18.7886C16.9086 12.1811 15.4019 10.6611 15.4019 8.76777V4.22244C15.4019 2.3411 16.9086 0.80777 18.7886 0.80777H23.2952Z" fill="white"/>
</svg>
