<svg width="33" height="33" viewBox="0 0 33 33" fill="none" xmlns="http://www.w3.org/2000/svg">
<path d="M22.8039 4.14111C27.4025 4.14111 30.1165 6.78724 30.1165 11.3168H24.4751V11.3631C21.8568 11.3631 19.7343 13.4324 19.7343 15.9851C19.7343 18.5378 21.8568 20.6072 24.4751 20.6072H30.1165V21.0232C30.1165 25.495 27.4025 28.1411 22.8039 28.1411H10.7625C6.16394 28.1411 3.44987 25.495 3.44987 21.0232V11.2591C3.44987 6.78724 6.16394 4.14111 10.7625 4.14111H22.8039ZM29.121 13.3043C29.6708 13.3043 30.1165 13.7389 30.1165 14.275V17.6491C30.1101 18.1825 29.6681 18.6134 29.121 18.6197H24.5817C23.2562 18.6371 22.0972 17.7523 21.7965 16.4935C21.646 15.7122 21.8573 14.9059 22.374 14.2907C22.8906 13.6756 23.6597 13.3145 24.4751 13.3043H29.121ZM25.1151 14.8643H24.6765C24.4073 14.8612 24.148 14.9633 23.9565 15.1478C23.765 15.3324 23.6573 15.584 23.6573 15.8465C23.6572 16.3972 24.1117 16.8454 24.6765 16.8518H25.1151C25.678 16.8518 26.1343 16.4068 26.1343 15.858C26.1343 15.3092 25.678 14.8643 25.1151 14.8643ZM17.2928 9.32937H9.7669C9.20858 9.32933 8.75414 9.76724 8.74765 10.3116C8.74765 10.8623 9.20207 11.3105 9.7669 11.3168H17.2928C17.8558 11.3168 18.3121 10.8719 18.3121 10.3231C18.3121 9.77428 17.8558 9.32937 17.2928 9.32937Z" fill="white"/>
</svg>
