<svg width="28" height="28" viewBox="0 0 28 28" fill="none" xmlns="http://www.w3.org/2000/svg">
<path d="M20.4382 0.82155C22.3562 0.701674 24.2476 1.36765 25.6728 2.67297C26.9781 4.09816 27.6441 5.98954 27.5375 7.92087V20.3613C27.6574 22.2927 26.9781 24.184 25.6861 25.6092C24.2609 26.9146 22.3562 27.5805 20.4382 27.4607H7.9976C6.06625 27.5805 4.17486 26.9146 2.74966 25.6092C1.44433 24.184 0.778349 22.2927 0.898226 20.3613V7.92087C0.778349 5.98954 1.44433 4.09816 2.74966 2.67297C4.17486 1.36765 6.06625 0.701674 7.9976 0.82155H20.4382ZM20.0919 6.90859C19.266 6.08277 17.9341 6.08277 17.1083 6.90859L16.2158 7.81432C16.0826 7.94751 16.0826 8.17394 16.2158 8.30714C16.2158 8.30714 16.242 8.33312 16.2885 8.37938L16.6161 8.70522C16.8057 8.89377 17.0422 9.12925 17.2797 9.36604L18.0852 10.1711C18.2533 10.3399 18.3647 10.4531 18.3736 10.4649C18.5201 10.6247 18.6134 10.8379 18.6134 11.0776C18.6134 11.5571 18.2271 11.9567 17.7343 11.9567C17.5078 11.9567 17.2947 11.8635 17.1482 11.7169L14.9238 9.5059C14.8173 9.39934 14.6308 9.39934 14.5242 9.5059L8.17076 15.8593C7.73121 16.2989 7.47814 16.8849 7.46482 17.511L7.3849 20.6677C7.3849 20.8408 7.43818 21.0007 7.55806 21.1205C7.67793 21.2404 7.83777 21.307 8.01092 21.307H11.141C11.7804 21.307 12.3931 21.054 12.8593 20.6011L21.8234 11.6104C22.6359 10.7846 22.6359 9.45262 21.8234 8.64013L20.0919 6.90859Z" fill="white"/>
</svg>
